<svg xmlns="http://www.w3.org/2000/svg" viewBox="0 0 1200 630" role="img" aria-labelledby="title desc">
  <title id="title">Splice Detail Canvas sharing image</title>
  <desc id="desc">A branded sharing card showing splice detail lines becoming a node workflow.</desc>
  <defs>
    <linearGradient id="bg" x1="80" y1="60" x2="1120" y2="570" gradientUnits="userSpaceOnUse">
      <stop stop-color="#1e293b"/>
      <stop offset=".55" stop-color="#0f172a"/>
      <stop offset="1" stop-color="#020617"/>
    </linearGradient>
    <linearGradient id="accent" x1="160" y1="230" x2="760" y2="395" gradientUnits="userSpaceOnUse">
      <stop stop-color="#38bdf8"/>
      <stop offset=".5" stop-color="#ff6b2c"/>
      <stop offset="1" stop-color="#34d399"/>
    </linearGradient>
  </defs>

  <rect width="1200" height="630" fill="url(#bg)"/>
  <circle cx="1080" cy="120" r="210" fill="#ff6b2c" opacity=".08"/>
  <circle cx="150" cy="560" r="260" fill="#38bdf8" opacity=".08"/>

  <g transform="translate(110 104)">
    <rect width="380" height="380" rx="88" fill="#020617" opacity=".42"/>
    <circle cx="92" cy="190" r="45" fill="#f8fafc"/>
    <circle cx="92" cy="190" r="29" fill="#0f172a"/>
    <circle cx="92" cy="190" r="14" fill="#38bdf8"/>

    <circle cx="305" cy="112" r="34" fill="#f8fafc"/>
    <circle cx="305" cy="112" r="19" fill="#7dd3fc"/>
    <circle cx="305" cy="190" r="38" fill="#f8fafc"/>
    <circle cx="305" cy="190" r="22" fill="#ff6b2c"/>
    <circle cx="305" cy="268" r="34" fill="#f8fafc"/>
    <circle cx="305" cy="268" r="19" fill="#34d399"/>

    <g fill="none" stroke-linecap="round" stroke-linejoin="round">
      <path d="M114 190H172" stroke="#64748b" stroke-width="15"/>
      <path d="M135 155c35 0 43 35 72 35" stroke="#38bdf8" stroke-width="15"/>
      <path d="M135 190h72" stroke="#ff6b2c" stroke-width="16"/>
      <path d="M135 225c35 0 43-35 72-35" stroke="#34d399" stroke-width="15"/>
      <path d="M219 190h39c19 0 30-11 30-30v-26" stroke="#38bdf8" stroke-width="15"/>
      <path d="M219 190h48" stroke="#ff6b2c" stroke-width="16"/>
      <path d="M219 190h39c19 0 30 11 30 30v26" stroke="#34d399" stroke-width="15"/>
    </g>

    <circle cx="211" cy="190" r="18" fill="#020617"/>
    <circle cx="211" cy="190" r="10" fill="#ff6b2c"/>
    <circle cx="211" cy="190" r="4" fill="#f8fafc"/>
  </g>

  <g transform="translate(550 188)">
    <text x="0" y="0" fill="#f8fafc" font-family="Inter, Segoe UI, Arial, sans-serif" font-size="68" font-weight="800" letter-spacing="-.04em">
      Splice Detail Canvas
    </text>
    <text x="0" y="78" fill="#cbd5e1" font-family="Inter, Segoe UI, Arial, sans-serif" font-size="34" font-weight="600">
      Fiber splice diagrams on a node workflow canvas
    </text>
    <rect x="0" y="128" width="430" height="10" rx="5" fill="url(#accent)"/>
  </g>
</svg>
